<?xml version="1.0" encoding="UTF-8" standalone="no"?><!DOCTYPE svg PUBLIC "-//W3C//DTD SVG 1.1//EN" "http://www.w3.org/Graphics/SVG/1.1/DTD/svg11.dtd"><svg width="100%" height="100%" viewBox="0 0 750 631" version="1.1" xmlns="http://www.w3.org/2000/svg" xmlns:xlink="http://www.w3.org/1999/xlink" xml:space="preserve" xmlns:serif="http://www.serif.com/" style="fill-rule:evenodd;clip-rule:evenodd;stroke-linejoin:round;stroke-miterlimit:2;"><g id="Layer_1-2"><path d="M664.37,214c-6.72,-16.68 -20.54,-20.88 -21.82,-22c-11.7,-10.34 -2.47,-21.22 -19.95,-30.7c-18.28,-9.91 -72,-37 -114.22,-31.37c-9.22,1.23 -27.83,17.6 -41.21,17.6l-184.33,0c-13.38,0 -32,-16.37 -41.22,-17.6c-42.24,-5.63 -95.93,21.46 -114.22,31.37c-17.47,9.48 -8.24,20.36 -19.94,30.7c-1.28,1.12 -15.1,5.32 -21.82,22c-62.75,156 -87.38,255.11 -85.55,315.13c2.91,94.42 76.58,101.33 76.58,101.33c37,-8.62 111.55,-129.14 168.54,-129.14l259.59,0c57,0 131.5,120.52 168.54,129.14c0,0 73.68,-6.91 76.56,-101.33c1.87,-60.02 -22.81,-159.13 -85.53,-315.13Z" style="fill:#1d1d1d;fill-rule:nonzero;"/><g><path d="M106.25,192.64c0.396,-0.194 0.78,-0.411 1.15,-0.65c-0.4,0.22 -0.77,0.42 -1.15,0.65Z" style="fill:none;fill-rule:nonzero;"/><path d="M642.56,192c0.49,0.309 1.002,0.583 1.53,0.82c-0.5,-0.31 -1.02,-0.58 -1.53,-0.82Z" style="fill:none;fill-rule:nonzero;"/><path d="M664.37,214c-2.635,-6.698 -7.102,-12.521 -12.89,-16.8c-2.324,-1.686 -4.801,-3.149 -7.4,-4.37c-0.524,-0.239 -1.032,-0.513 -1.52,-0.82c-33.56,-18.01 -97.46,-38.2 -117.48,-34.35c-26,5 -65.54,79.72 -89,79.72l-121,0c-23.43,0 -63,-74.7 -89,-79.72c-19.58,-3.78 -85.59,16.46 -118.75,34.33c-0.37,0.239 -0.754,0.456 -1.15,0.65c-3.09,1.421 -6.009,3.189 -8.7,5.27c-5.298,4.223 -9.384,9.776 -11.84,16.09c-62.75,156 -87.38,255.11 -85.55,315.13c2.91,94.42 76.58,101.33 76.58,101.33c37,-8.62 111.55,-129.14 168.54,-129.14l259.59,0c57,0 131.5,120.52 168.54,129.14c0,0 73.68,-6.91 76.56,-101.33c1.87,-60.02 -22.81,-159.13 -85.53,-315.13Z" style="fill:#c798ff;fill-rule:nonzero;stroke:#c798ff;stroke-width:1px;"/></g><path d="M107.46,191.96l-0,1.56" style="fill:none;fill-rule:nonzero;"/><path d="M642.55,191.47l-0,0.95" style="fill:none;fill-rule:nonzero;"/><g id="Dpad"><g><g><path d="M277.67,452.7c-7.13,0 -12.74,-1.32 -13.05,-3.08c-0.005,-0.05 -0.005,-0.1 0,-0.15l0,-34.42c0,-0.274 -0.226,-0.5 -0.5,-0.5l-34.43,0c-1.82,0 -3.25,-5.74 -3.25,-13.06c0,-7.32 1.43,-13.06 3.25,-13.06l34.42,0c0.274,0 0.5,-0.226 0.5,-0.5l0,-34.42c-0.005,-0.047 -0.005,-0.093 0,-0.14l0.06,-0.23l0.08,-0.13c0.5,-0.81 2.11,-1.52 4.54,-2l0.89,-0.18c0.331,-0.061 0.665,-0.104 1,-0.13l0.16,0l0.9,-0.11l1,-0.11l1,-0.08l2.36,-0.08l1.05,0c7.33,0 13.06,1.42 13.06,3.23l0,34.42c0,0.274 0.226,0.5 0.5,0.5l34.41,0c1.81,0 3.23,5.74 3.23,13.06c-0,7.32 -1.42,13.06 -3.23,13.06l-34.38,0c-0.274,0 -0.5,0.226 -0.5,0.5l-0,34.42c0.005,0.05 0.005,0.1 -0,0.15c-0.32,1.72 -5.94,3.04 -13.07,3.04Z" style="fill:#1d1d1d;fill-rule:nonzero;"/><path d="M277.67,350.78c8.09,-0 12.56,1.61 12.56,2.73l0,34.43c0,0.549 0.451,1 1,1l34.42,-0c1.14,-0 2.73,4.77 2.73,12.55c0,7.78 -1.59,12.56 -2.73,12.56l-34.42,-0c-0.549,-0 -1,0.451 -1,1l0,34.49c-0.2,1.11 -4.67,2.66 -12.56,2.66c-7.89,-0 -12.36,-1.55 -12.56,-2.66l0,-34.49c0,-0.549 -0.451,-1 -1,-1l-34.42,-0c-1.15,-0 -2.75,-4.78 -2.75,-12.56c0,-7.78 1.6,-12.56 2.75,-12.56l34.42,-0c0.549,-0 1,-0.451 1,-1l0,-34.46c0.004,-0.047 0.004,-0.093 0,-0.14l0,-0.05c0.15,-0.25 0.91,-1.12 4.19,-1.76l0.06,-0c0.27,-0.07 0.55,-0.12 0.83,-0.17l0.08,-0c0.264,-0.053 0.531,-0.089 0.8,-0.11l0.18,-0l0.92,-0.12l1,-0.11l1,-0.08l3.41,-0m-0,-1l-3.49,-0l-1,0.08l-1,0.11l-1,0.13l-0.05,-0c-0.315,0.027 -0.629,0.07 -0.94,0.13l-0.08,-0l-0.88,0.18c-2.43,0.48 -4.25,1.22 -4.86,2.23c-0.048,0.045 -0.085,0.099 -0.11,0.16c-0.005,0.06 -0.005,0.12 -0,0.18c-0.004,0.047 -0.004,0.093 -0,0.14c-0.009,0.073 -0.009,0.147 -0,0.22l-0,34.43l-34.48,-0c-5,-0 -5,27.11 0,27.11l34.42,-0l0,34.42c-0.01,0.08 -0.01,0.16 0,0.24c0.4,2.33 7,3.49 13.54,3.49c6.54,-0 13.13,-1.16 13.54,-3.49c0.005,-0.08 0.005,-0.16 0,-0.24l0,-34.4l34.42,-0c5,-0 5,-27.11 0,-27.11l-34.38,-0l-0,-34.43c-0,-2.5 -6.79,-3.73 -13.56,-3.73l-0.09,0.15Z" style="fill:#1d1d1d;fill-rule:nonzero;stroke:#1d1d1d;stroke-width:4px;"/></g></g></g><g id="Menu_Key"><path d="M448.92,280.37c-0,10.319 -8.491,18.81 -18.81,18.81c-10.319,-0 -18.81,-8.491 -18.81,-18.81c0,-10.319 8.491,-18.81 18.81,-18.81c0.007,-0 0.013,-0 0.02,0c10.311,0.011 18.79,8.499 18.79,18.81Z" style="fill:#1a1615;fill-rule:nonzero;"/><g><path d="M446.23,280.37c-0,8.838 -7.272,16.11 -16.11,16.11c-8.838,-0 -16.11,-7.272 -16.11,-16.11c0,-8.838 7.272,-16.11 16.11,-16.11c0.003,-0 0.007,-0 0.01,0c8.834,0.005 16.1,7.276 16.1,16.11Z" style="fill-rule:nonzero;stroke:#000;stroke-width:1px;stroke-linejoin:miter;stroke-miterlimit:4;"/><g><rect x="422.93" y="275.74" width="14.36" height="1.55" style="fill:#6d6b6c;"/><rect x="422.93" y="279.66" width="14.36" height="1.55" style="fill:#6d6b6c;"/><rect x="422.93" y="283.47" width="14.36" height="1.53" style="fill:#6d6b6c;"/></g></g></g><g id="Switcher_Key"><path d="M340.94,280.37c-0,10.319 -8.491,18.81 -18.81,18.81c-10.319,-0 -18.81,-8.491 -18.81,-18.81c0,-10.315 8.485,-18.805 18.8,-18.81c0.003,-0 0.007,-0 0.01,-0c10.319,-0 18.81,8.491 18.81,18.81l0,0Z" style="fill:#1a1615;fill-rule:nonzero;"/><g><path d="M338.22,280.37c-0.005,8.828 -7.272,16.09 -16.1,16.09c-8.832,-0 -16.1,-7.268 -16.1,-16.1c0,-8.832 7.268,-16.1 16.1,-16.1c0.003,-0 0.007,-0 0.01,-0c8.827,-0 16.09,7.263 16.09,16.09c0,0.007 0,0.013 0,0.02Z" style="fill-rule:nonzero;stroke:#000;stroke-width:1px;stroke-linejoin:miter;stroke-miterlimit:4;"/><g><path d="M319.6,280.27l-3.03,0l-0,-3.79l5.47,0l-0,1.32l1.8,0l-0,-3.06l-8.89,0l-0,7.39l4.65,0l-0,-1.86Z" style="fill:#6d6b6c;fill-rule:nonzero;"/><path d="M320.35,278.43l0,7.57l9,0l0,-7.58l-9,0.01Zm7.16,5.78l-5.51,0l-0,-3.95l5.47,0l0.04,3.95Z" style="fill:#6d6b6c;fill-rule:nonzero;"/></g></g></g><g id="Left_Stick"><path d="M185.47,351.49c-37.126,-0.011 -67.67,-30.564 -67.67,-67.69c0,-37.134 30.556,-67.69 67.69,-67.69c37.134,0 67.69,30.556 67.69,67.69c-0.044,37.125 -30.585,67.657 -67.71,67.69Z" style="fill:#1d1d1d;fill-rule:nonzero;stroke:#140c0c;stroke-width:1px;stroke-linejoin:miter;stroke-miterlimit:4;"/><path d="M241.57,279.86c-0,30.776 -25.324,56.1 -56.1,56.1c-30.776,0 -56.1,-25.324 -56.1,-56.1c-0,-30.776 25.324,-56.1 56.1,-56.1c0.003,-0 0.007,-0 0.01,-0c30.77,-0 56.09,25.32 56.09,56.09c0,0.003 0,0.007 0,0.01Z" style="fill:#1d1d1d;fill-rule:nonzero;"/></g><g id="Right_Stick"><path d="M473,465.46c-37.135,-0.005 -67.69,-30.565 -67.69,-67.7c0,-37.139 30.561,-67.7 67.7,-67.7c37.139,0 67.7,30.561 67.7,67.7c0,0.007 0,0.013 0,0.02c-0.049,37.121 -30.589,67.647 -67.71,67.68Z" style="fill:#1d1d1d;fill-rule:nonzero;stroke:#140c0c;stroke-width:1px;stroke-linejoin:miter;stroke-miterlimit:4;"/><path d="M529.15,393.82c0,-0 0,0.007 0,0.01c0,30.776 -25.324,56.1 -56.1,56.1c-30.776,-0 -56.1,-25.324 -56.1,-56.1c0,-30.757 25.293,-56.073 56.05,-56.1c0.02,-0 0.04,-0 0.06,-0c30.77,-0 56.09,25.32 56.09,56.09Z" style="fill:#1d1d1d;fill-rule:nonzero;"/></g><g id="Button_Base"><g id="A"><path d="M566.76,355.27c-13.809,-0.022 -25.16,-11.391 -25.16,-25.2c0,-13.824 11.376,-25.2 25.2,-25.2c13.824,0 25.2,11.376 25.2,25.2c-0.011,13.828 -11.392,25.2 -25.22,25.2c-0.007,0 -0.013,0 -0.02,0Z" style="fill:#1d1d1d;fill-rule:nonzero;"/><path d="M566.76,306.38c0.003,-0 0.007,-0 0.01,-0c13.001,-0 23.7,10.699 23.7,23.7c-0,13.001 -10.699,23.7 -23.7,23.7c-13.001,-0 -23.7,-10.699 -23.7,-23.7c-0,-0.003 -0,-0.007 0,-0.01c0,-12.996 10.694,-23.69 23.69,-23.69m0,-3c-14.643,0.005 -26.69,12.057 -26.69,26.7c0,14.647 12.053,26.7 26.7,26.7c14.647,-0 26.7,-12.053 26.7,-26.7c0,-0.003 0,-0.007 0,-0.01c-0.016,-14.643 -12.067,-26.685 -26.71,-26.69Z" style="fill:#1d1d1d;fill-rule:nonzero;"/></g><g id="Y"><path d="M566.76,254.2c-13.809,-0.022 -25.16,-11.391 -25.16,-25.2c0,-13.824 11.376,-25.2 25.2,-25.2c13.824,0 25.2,11.376 25.2,25.2c-0.016,13.833 -11.407,25.205 -25.24,25.2Z" style="fill:#1d1d1d;fill-rule:nonzero;"/><path d="M566.76,205.3c0.003,-0 0.007,-0 0.01,-0c13.001,-0 23.7,10.699 23.7,23.7c-0,13.001 -10.699,23.7 -23.7,23.7c-13.001,-0 -23.7,-10.699 -23.7,-23.7c0.005,-12.994 10.696,-23.685 23.69,-23.69m0,-3c-14.643,0.005 -26.69,12.057 -26.69,26.7c0,14.647 12.053,26.7 26.7,26.7c14.647,-0 26.7,-12.053 26.7,-26.7c0,-0.003 0,-0.007 0,-0.01c-0.016,-14.643 -12.067,-26.685 -26.71,-26.69Z" style="fill:#1d1d1d;fill-rule:nonzero;"/></g><g id="B"><path d="M617.3,304.73c-13.824,-0 -25.2,-11.376 -25.2,-25.2c-0,-13.824 11.376,-25.2 25.2,-25.2c13.824,-0 25.2,11.376 25.2,25.2c-0.016,13.818 -11.382,25.184 -25.2,25.2Z" style="fill:#1d1d1d;fill-rule:nonzero;"/><path d="M617.3,255.84c0.003,-0 0.007,-0 0.01,-0c13.001,-0 23.7,10.699 23.7,23.7c-0,13.001 -10.699,23.7 -23.7,23.7c-13.001,-0 -23.7,-10.699 -23.7,-23.7c-0,-0.003 -0,-0.017 -0,-0.02c-0,-12.99 10.69,-23.68 23.68,-23.68c0.003,-0 0.007,-0 0.01,0m0,-3c-14.647,0 -26.7,12.053 -26.7,26.7c0,14.647 12.053,26.7 26.7,26.7c14.647,-0 26.7,-12.053 26.7,-26.7c0,-0.003 0,-0.007 0,-0.01c-0.016,-14.639 -12.061,-26.679 -26.7,-26.69Z" style="fill:#1d1d1d;fill-rule:nonzero;"/></g><g id="X"><path d="M516.22,304.73c-13.821,-0.005 -25.19,-11.379 -25.19,-25.2c0,-13.824 11.376,-25.2 25.2,-25.2c13.824,0 25.2,11.376 25.2,25.2c-0.016,13.822 -11.388,25.189 -25.21,25.2Z" style="fill:#1d1d1d;fill-rule:nonzero;"/><path d="M516.22,255.84c0.003,-0 0.007,-0 0.01,-0c13.001,-0 23.7,10.699 23.7,23.7c-0,13.001 -10.699,23.7 -23.7,23.7c-13.001,-0 -23.7,-10.699 -23.7,-23.7c-0,-0.003 -0,-0.007 0,-0.01c0,-12.996 10.694,-23.69 23.69,-23.69m0,-3c-14.643,0.005 -26.69,12.057 -26.69,26.7c0,14.647 12.053,26.7 26.7,26.7c14.647,-0 26.7,-12.053 26.7,-26.7c0,-0.003 0,-0.007 0,-0.01c-0.016,-14.643 -12.067,-26.685 -26.71,-26.69Z" style="fill:#1d1d1d;fill-rule:nonzero;"/></g></g><g><g><path d="M375.61,156.5c0,0 -88.91,-1.07 -100.54,-3l-16.39,30.53c20.24,23.27 41.59,53.32 56.44,53.32l121,0c14.87,0 36.2,-30 56.46,-53.32l-16.38,-30.53c-11.64,1.93 -100.59,3 -100.59,3Z" style="fill:#1d1d1d;fill-rule:nonzero;"/><path d="M476.19,153.53l-3.64,-6.78c-1.754,0.476 -3.562,0.728 -5.38,0.75l-184.33,0c-1.441,-0.016 -2.876,-0.187 -4.28,-0.51l-3.49,6.54c11.63,1.9 100.54,3 100.54,3c-0,0 88.95,-1.1 100.58,-3Z" style="fill:#1d1d1d;fill-rule:nonzero;"/></g><g id="RB"><path d="M642.55,192c-9,-7.94 -5.64,-16.16 -11.47,-23.85c0.24,0.33 0.49,0.65 0.7,1c-0,0 -96.53,-42.06 -120.8,-34.48c-15.57,4.87 -27.24,15.34 -32.83,18.23l15.85,29.52c11.17,-12.68 22,-23 31.06,-24.76c20.04,-3.85 83.94,16.34 117.5,34.34l-0.01,-0Z" style="fill:#1d1d1d;fill-rule:nonzero;"/><path d="M511,134.62c24.27,-7.59 120.77,34.46 120.8,34.47c-0.21,-0.33 -0.46,-0.65 -0.7,-1l-0.1,-0.09c-0.1,-0.14 -0.18,-0.25 -0.29,-0.38l-0.14,-0.16l-0.27,-0.33c-0.058,-0.048 -0.112,-0.102 -0.16,-0.16c-0.08,-0.112 -0.174,-0.212 -0.28,-0.3l-0.16,-0.2c-0.102,-0.092 -0.198,-0.188 -0.29,-0.29c-0.062,-0.072 -0.128,-0.138 -0.2,-0.2c-0.106,-0.086 -0.204,-0.184 -0.29,-0.29l-0.23,-0.18c-0.085,-0.108 -0.186,-0.203 -0.3,-0.28l-0.23,-0.21c-0.11,-0.1 -0.21,-0.17 -0.31,-0.27l-0.27,-0.22l-0.33,-0.26c-0.084,-0.071 -0.175,-0.135 -0.27,-0.19c-0.12,-0.1 -0.22,-0.19 -0.35,-0.28c-0.096,-0.058 -0.187,-0.125 -0.27,-0.2l-0.38,-0.26l-0.29,-0.22c-0.143,-0.076 -0.28,-0.163 -0.41,-0.26l-0.3,-0.2c-0.155,-0.089 -0.305,-0.185 -0.45,-0.29c-0.106,-0.045 -0.207,-0.102 -0.3,-0.17c-0.17,-0.111 -0.347,-0.211 -0.53,-0.3l-0.25,-0.17c-0.28,-0.15 -0.56,-0.3 -0.84,-0.47c-18.28,-9.91 -72,-37 -114.22,-31.37c-7.61,1 -21.63,12.34 -33.82,16.28l3.59,6.67c5.58,-2.84 17.25,-13.36 32.84,-18.22Z" style="fill:#1d1d1d;fill-rule:nonzero;"/></g><g id="LB"><path d="M241.62,129.89c-42.24,-5.63 -95.93,21.46 -114.22,31.37c-0.27,0.17 -0.55,0.31 -0.82,0.47l-0.25,0.16c-0.186,0.088 -0.367,0.189 -0.54,0.3c-0.088,0.07 -0.186,0.128 -0.29,0.17l-0.45,0.3l-0.29,0.18c-0.132,0.102 -0.273,0.192 -0.42,0.27l-0.26,0.2l-0.4,0.27c-0.078,0.07 -0.162,0.133 -0.25,0.19c-0.133,0.089 -0.26,0.185 -0.38,0.29c-0.086,0.052 -0.166,0.112 -0.24,0.18c-0.118,0.1 -0.242,0.193 -0.37,0.28l-0.22,0.19c-0.12,0.11 -0.23,0.19 -0.35,0.29l-0.19,0.19c-0.125,0.086 -0.239,0.187 -0.34,0.3c-0.056,0.058 -0.12,0.109 -0.19,0.15c-0.12,0.12 -0.21,0.23 -0.33,0.33l-0.16,0.15c-0.1,0.12 -0.21,0.23 -0.33,0.33l-0.12,0.16c-0.117,0.107 -0.224,0.224 -0.32,0.35l-0.11,0.12c-0.115,0.116 -0.222,0.239 -0.32,0.37l-0.09,0.1c-0.12,0.15 -0.22,0.27 -0.32,0.41l-0.05,0.04c-0.11,0.14 -0.21,0.29 -0.32,0.44l-0,0.05c-0.13,0.15 -0.23,0.32 -0.34,0.47c-0,-0 97.69,-42 122,-34.38c15.54,4.87 27.22,15.33 32.8,18.22l3.42,-6.34c-12.47,-3.55 -27.09,-15.54 -34.94,-16.57Z" style="fill:#1d1d1d;fill-rule:nonzero;"/><g><path d="M273.57,153.1l0.46,0.18l-0.46,-0.18Z" style="fill:#1d1d1d;fill-rule:nonzero;"/><path d="M273.1,152.85c-5.58,-2.89 -17.27,-13.36 -32.82,-18.23c-24.21,-7.56 -121.28,34.09 -121.98,34.38c-5,7.44 -2.21,15.33 -10.84,23l-0.06,0c33.16,-17.87 99.17,-38.11 118.75,-34.33c9.13,1.76 19.91,12.08 31.08,24.76l15.85,-29.58l0.02,0Z" style="fill:#1d1d1d;fill-rule:nonzero;"/><path d="M273.1,152.85c0.17,0.08 0.31,0.17 0.47,0.25c-0.16,-0.1 -0.3,-0.17 -0.47,-0.25Z" style="fill:#1d1d1d;fill-rule:nonzero;"/></g><path d="M258,183.23c0.23,0.29 0.47,0.56 0.72,0.83l16.39,-30.53l3.49,-6.54c-0.35,-0.06 -0.69,-0.13 -1,-0.22c-0.31,-0.09 -0.67,-0.19 -1,-0.27l-3.43,6.34l-15.85,29.58c0.24,0.27 0.47,0.54 0.73,0.81" style="fill:#1d1d1d;fill-rule:nonzero;"/></g><path d="M478.15,152.84l-3.59,-6.67c-0.33,0.09 -0.66,0.21 -1,0.31l-1,0.27l3.64,6.78l16.38,30.54c0.24,-0.28 0.5,-0.54 0.73,-0.84c0.23,-0.3 0.49,-0.54 0.72,-0.81l-15.88,-29.58Z" style="fill:#1d1d1d;fill-rule:nonzero;"/></g><g><g><path d="M549.08,5.47c-0.4,-0.32 -0.8,-0.62 -1.21,-0.9l-2.35,110l53.28,7.24c-12.07,-116.81 -42.98,-111.05 -49.72,-116.34Z" style="fill:#1d1d1d;fill-rule:nonzero;"/><path d="M522,0.14c-10.78,0.41 -12,11.44 -12.14,15.19l0,1.23c1.764,31.005 1.764,62.085 0,93.09c9.93,2.29 38.54,5.3 38.54,5.3c0,0 0,-20.91 0.68,-50.6c0.8,-37.5 -1.21,-59.78 -1.21,-59.78c-6.42,-4.48 -13.57,-4.88 -25.87,-4.43Z" style="fill:#1d1d1d;fill-rule:nonzero;"/></g><g><path d="M201,5.47c0.4,-0.32 0.8,-0.62 1.21,-0.9l2.32,110l-53.25,7.24c12.07,-116.81 42.96,-111.05 49.72,-116.34Z" style="fill:#1d1d1d;fill-rule:nonzero;"/><path d="M228,0.14c10.84,0.41 12.07,11.44 12.19,15.19l0,1.23c-1.764,31.005 -1.764,62.085 0,93.09c-9.92,2.29 -38.53,5.3 -38.53,5.3c0,0 -0.04,-20.95 -0.66,-50.6c-0.82,-37.5 1.21,-59.78 1.21,-59.78c6.41,-4.48 13.56,-4.88 25.79,-4.43Z" style="fill:#1d1d1d;fill-rule:nonzero;"/></g></g></g></svg>