<?xml version="1.0" encoding="UTF-8" standalone="no"?><!DOCTYPE svg PUBLIC "-//W3C//DTD SVG 1.1//EN" "http://www.w3.org/Graphics/SVG/1.1/DTD/svg11.dtd"><svg width="100%" height="100%" viewBox="0 0 84 84" version="1.1" xmlns="http://www.w3.org/2000/svg" xmlns:xlink="http://www.w3.org/1999/xlink" xml:space="preserve" xmlns:serif="http://www.serif.com/" style="fill-rule:evenodd;clip-rule:evenodd;stroke-linejoin:round;stroke-miterlimit:2;"><g id="Layer_1-2"><g><g><path d="M83.38,41.7c0,23.02 -18.68,41.69 -41.7,41.68c-23.02,-0.01 -41.68,-18.68 -41.68,-41.7c0,-23.02 18.66,-41.68 41.68,-41.68c23.02,-0.01 41.69,18.64 41.7,41.66l0,0.04Z" style="fill:#c798ff;fill-rule:nonzero;"/><path d="M41.68,0l-2.01,0l1,20l1,0l0,-20l0.01,0Zm-4,0.19l-0.31,0c-0.56,0.06 -1.12,0.13 -1.67,0.21l2.84,19.79c0.35,0 0.69,-0.09 1,-0.12l-1.86,-19.88Zm-3.95,0.57l-0.52,0c-0.48,0.1 -1,0.2 -1.44,0.32l4.74,19.43c0.33,-0.08 0.67,-0.16 1,-0.22l-3.78,-19.53Zm-3.89,1l-0.8,0.24l-0.12,0l-0.93,0.31l6.59,18.88c0.32,-0.11 0.65,-0.22 1,-0.31l-5.74,-19.17l0,0.05Zm-3.77,1.24c-0.62,0.25 -1.23,0.52 -1.84,0.8l8.38,18.2c0.32,-0.15 0.63,-0.29 1,-0.42l-7.54,-18.58Zm-3.63,1.7c-0.59,0.31 -1.18,0.63 -1.75,1l10.09,17.28c0.29,-0.18 0.6,-0.35 0.9,-0.51l-9.24,-17.77Zm-3.45,2c-0.56,0.36 -1.11,0.73 -1.66,1.13l11.7,16.22l0.86,-0.59l-10.9,-16.74l0,-0.02Zm-3.25,2.33c-0.52,0.42 -1.03,0.85 -1.53,1.29l13.18,15c0.27,-0.23 0.53,-0.45 0.81,-0.67l-12.46,-15.6l0,-0.02Zm-3,2.64l-0.84,0.84l-0.43,0.45l14.56,13.71c0.24,-0.25 0.49,-0.5 0.74,-0.74l-14.04,-14.24l0,-0.02l0.01,0Zm-2.75,2.93c-0.38,0.45 -0.74,0.9 -1.1,1.36l15.8,12.26c0.21,-0.27 0.44,-0.54 0.66,-0.81l-15.2,-13l-0.16,0.19Zm-2.45,3.16l-0.15,0.23c-0.32,0.46 -0.63,0.92 -0.93,1.39l16.9,10.7c0.19,-0.29 0.38,-0.59 0.58,-0.87l-16.4,-11.45Zm-2.14,3.38l-0.45,0.81c-0.17,0.31 -0.33,0.62 -0.49,0.93l17.85,9c0.15,-0.31 0.32,-0.62 0.49,-0.92l-17.4,-9.87l0,0.05Zm-1.79,3.57l-0.2,0.45l0,0.12c-0.18,0.42 -0.35,0.84 -0.52,1.27l18.63,7.26c0.13,-0.32 0.26,-0.64 0.4,-1l-18.31,-8.1Zm-1.45,3.72c-0.09,0.27 -0.18,0.54 -0.26,0.81c-0.06,0.18 -0.11,0.36 -0.16,0.55l19.24,5.43c0.1,-0.33 0.2,-0.66 0.31,-1l-19,-6.35l-0.13,0.56Zm-1.09,3.85c-0.12,0.53 -0.23,1.06 -0.33,1.59c0,0.13 -0.05,0.25 -0.07,0.37l19.68,3.55c0.06,-0.34 0.13,-0.68 0.21,-1l-19.49,-4.5l0,-0.01Zm-0.71,3.94l-0.15,1.28l-0.06,0.59l19.93,1.66c0,-0.35 0.07,-0.7 0.12,-1l-19.84,-2.6l0,0.07Zm-0.33,3.98l0,1.72l20,-0.23l0,-0.78l-20,-0.71Zm20,2.84l-20,1.18c0,0.57 0.08,1.14 0.13,1.7l0,0.18l19.89,-2.13c0,-0.34 -0.07,-0.69 -0.09,-1l0.07,0.07Zm0.23,2.08l-19.76,3.06c0.09,0.53 0.18,1.05 0.28,1.57l0,0.17l19.59,-4c-0.07,-0.34 -0.13,-0.67 -0.18,-1l0.07,0.2Zm0.41,2l-19.37,5c0.17,0.65 0.35,1.29 0.54,1.93l19.11,-5.9c-0.1,-0.33 -0.19,-0.67 -0.28,-1l0,-0.03Zm0.61,2l-18.8,6.81c0.23,0.63 0.47,1.25 0.73,1.87l18.45,-7.72c-0.13,-0.32 -0.26,-0.64 -0.38,-1l0,0.04Zm0.8,1.9l-18.06,8.58c0,0.07 0.07,0.15 0.11,0.22c0.17,0.37 0.36,0.73 0.55,1.1l0.17,0.32l17.63,-9.45c-0.16,-0.31 -0.32,-0.62 -0.47,-0.93l0.07,0.16Zm1,1.83l-17.17,10.27l0.3,0.48c0.24,0.38 0.49,0.77 0.74,1.14l16.66,-11.03c-0.19,-0.29 -0.38,-0.58 -0.56,-0.88l0.03,0.02Zm1.16,1.73l-16.11,11.87l0.23,0.3c0.23,0.3 0.47,0.6 0.71,0.89l15.5,-12.64c-0.22,-0.27 -0.44,-0.55 -0.64,-0.83l0.31,0.41Zm1.32,1.62l-14.9,13.35c0.45,0.49 0.9,1 1.37,1.45l14.23,-14.06c-0.25,-0.24 -0.49,-0.5 -0.72,-0.76l0.02,0.02Zm1.47,1.49l-13.56,14.7l0.76,0.68l0.06,0l0.67,0.57l12.82,-15.35c-0.27,-0.22 -0.54,-0.46 -0.79,-0.69l0.04,0.09Zm1.58,1.31l-12.07,16l0.93,0.68l0.69,0.48l11.3,-16.5l-0.85,-0.66Zm1.72,1.18l-10.49,17l0.1,0.07c0.5,0.3 1,0.6 1.52,0.88l9.66,-17.51l-0.9,-0.52l0.11,0.08Zm1.82,1l-8.81,18l0.34,0.17l0.16,0c0.42,0.2 0.84,0.39 1.27,0.57l7.93,-18.36c-0.31,-0.13 -0.63,-0.28 -0.94,-0.43l0.05,0.05Zm1.9,0.82l-7,18.72c0.63,0.24 1.25,0.45 1.89,0.66l6.13,-19l-1,-0.34l-0.02,-0.04Zm2,0.63l-5.23,19.37l0.24,0.06l0.2,0c0.5,0.13 1,0.25 1.5,0.36l4.26,-19.55c-0.34,-0.07 -0.67,-0.15 -1,-0.24l0.03,0Zm2,0.44l-3.31,19.73c0.5,0.08 1,0.16 1.51,0.22l0.47,0.06l2.36,-19.86c-0.35,0 -0.69,-0.09 -1,-0.15l-0.03,0Zm2.07,0.25l-1.41,20l2.03,0l0.47,-20l-1.09,0Zm3.16,0l-1,0.05l0.47,20l0.69,0l1.19,-0.06l0.12,0l-1.42,-20l-0.05,0l0,0.01Zm2.07,-0.25c-0.34,0.06 -0.69,0.11 -1,0.15l2.37,19.86c0.62,-0.08 1.23,-0.16 1.83,-0.26l0.15,0l-3.32,-19.73l-0.03,-0.02Zm2,-0.44c-0.33,0.09 -0.67,0.17 -1,0.24l4.26,19.55l0.42,0l0.76,-0.18l0.36,0l0.46,-0.24l-5.2,-19.32l-0.06,-0.05Zm2,-0.63l-1,0.34l6.14,19l0.92,-0.31l0.2,0l0.77,-0.29l-7,-18.71l-0.03,-0.03Zm1.9,-0.83l-0.94,0.44l7.92,18.39c0.35,-0.15 0.7,-0.3 1,-0.47l0.16,0l0.61,-0.29l-8.81,-18l0.06,-0.07Zm1.82,-1c-0.3,0.18 -0.6,0.36 -0.9,0.52l9.67,17.51l0.18,-0.1l0.1,0c0.47,-0.26 0.92,-0.53 1.37,-0.8l-10.49,-17l0.07,-0.13Zm1.7,-1.17c-0.28,0.21 -0.56,0.42 -0.85,0.61l11.3,16.5c0.25,-0.17 0.51,-0.35 0.75,-0.53l0.15,0l0.6,-0.45l-11.95,-16.13Zm1.6,-1.34c-0.25,0.24 -0.52,0.47 -0.78,0.69l12.82,15.35l0.34,0c0.34,-0.28 0.66,-0.57 1,-0.86l0.06,0l-13.44,-15.18Zm1.47,-1.49c-0.23,0.26 -0.47,0.52 -0.72,0.77l14.23,14c0.31,-0.32 0.62,-0.64 0.92,-1l0.32,-0.35l-14.75,-13.42Zm1.32,-1.61c-0.2,0.27 -0.42,0.55 -0.64,0.82l15.5,12.62c0.2,-0.26 0.41,-0.52 0.61,-0.79l0.36,-0.47l-15.83,-12.18Zm1.16,-1.74c-0.18,0.3 -0.37,0.59 -0.56,0.88l16.64,11.1l0.14,-0.21c0.31,-0.47 0.61,-0.95 0.9,-1.43l-17.12,-10.34Zm1,-1.83c-0.15,0.32 -0.31,0.63 -0.47,0.93l17.63,9.45l0.27,-0.51c0.14,-0.28 0.28,-0.55 0.41,-0.83c0,-0.11 0.1,-0.22 0.16,-0.33l-18.02,-8.7l0.02,0l0,-0.01Zm0.8,-1.9c-0.12,0.32 -0.25,0.64 -0.38,1l18.45,7.71l0.29,-0.69c0.14,-0.36 0.27,-0.71 0.4,-1.06l-18.8,-6.81l0.04,-0.15Zm0.6,-2c-0.08,0.33 -0.18,0.67 -0.28,1l19.1,5.91l0.12,-0.41l0.33,-1.21l-19.38,-5l0.11,-0.29Zm0.42,-2c0,0.34 -0.12,0.68 -0.18,1l19.59,4c0.11,-0.57 0.22,-1.15 0.31,-1.72l0,-0.25l-19.76,-3.07l0.04,0.04Zm0.22,-2.08c0,0.35 0,0.7 -0.08,1l19.88,2.13c0,-0.24 0.05,-0.47 0.07,-0.71c0,-0.38 0.06,-0.76 0.08,-1.14l0,-0.06l-20,-1.18l0.05,-0.04Zm20,-2.82l-20,0.71l0,1.1l20,0.23l0,-2.04Zm-0.33,-4l-19.83,2.61c0,0.34 0.08,0.69 0.11,1l19.93,-1.66l0,-0.47c0,-0.46 -0.1,-0.92 -0.16,-1.37l-0.05,-0.11Zm-0.71,-3.93l-19.49,4.5c0.08,0.33 0.15,0.68 0.21,1l19.68,-3.56l-0.18,-0.95l-0.06,-0.32l0,-0.06l-0.06,-0.24l-0.1,-0.37Zm-1.09,-3.85l-19,6.36c0.11,0.33 0.21,0.66 0.3,1l19.25,-5.44c-0.14,-0.49 -0.29,-1 -0.45,-1.46c0,-0.1 -0.07,-0.19 -0.1,-0.29l0,-0.17Zm-1.45,-3.73l-18.27,8.17c0.14,0.32 0.27,0.64 0.4,1l18.63,-7.27c-0.24,-0.62 -0.5,-1.24 -0.77,-1.85l0,-0.05l0.01,0Zm-1.81,-3.57l-17.36,9.89c0.17,0.3 0.34,0.61 0.49,0.92l17.85,-9c-0.27,-0.52 -0.54,-1 -0.83,-1.55l-0.15,-0.26Zm-2.14,-3.37l-16.36,11.5c0.2,0.28 0.39,0.57 0.58,0.86l16.89,-10.7l-0.13,-0.2l-0.66,-1l-0.27,-0.38l-0.05,-0.08Zm-2.45,-3.16l-15.19,13c0.22,0.26 0.44,0.53 0.66,0.81l15.76,-12.25l-0.11,-0.15l-0.13,-0.15l-0.99,-1.26Zm-2.77,-2.9l-13.89,14.4l0.74,0.74l14.57,-13.72c-0.46,-0.49 -0.92,-1 -1.4,-1.42l-0.02,0Zm-3,-2.68l-12.44,15.7c0.27,0.21 0.54,0.44 0.8,0.67l13.18,-15l-0.23,-0.21l-1.31,-1.16Zm-3.25,-2.33l-10.88,16.81c0.29,0.19 0.58,0.38 0.86,0.59l11.69,-16.23l-0.42,-0.33l-0.06,0l-0.51,-0.36l-0.08,0l-0.55,-0.36l-0.05,-0.12Zm-3.45,-2l-9.24,17.74c0.31,0.16 0.61,0.33 0.91,0.5l10.09,-17.25l-0.43,-0.25l-0.06,0c-0.4,-0.23 -0.8,-0.44 -1.21,-0.66l-0.06,-0.08Zm-3.62,-1.67l-7.49,18.54l0.95,0.41l8.38,-18.16l-0.32,0c-0.5,-0.23 -1,-0.44 -1.52,-0.65l0,-0.14Zm-3.78,-1.3l-5.66,19.18l1,0.32l6.59,-18.89l-1.34,-0.44l-0.15,0l-0.42,-0.13l-0.02,-0.04Zm-3.9,-0.94l-3.79,19.63l1,0.22l4.79,-19.43l-0.23,0l-0.82,-0.19l-0.23,0c-0.23,-0.06 -0.45,-0.1 -0.67,-0.14l-0.05,-0.09Zm-4,-0.57l-1.83,19.91c0.35,0 0.7,0.07 1,0.12l2.88,-19.8l-0.5,-0.06l-0.21,0l-0.9,-0.1l-0.38,0l-0.06,-0.07Zm-4,-0.19l0,20l1.06,0l0.94,-20l-2,0Z" style="fill:#c798ff;fill-rule:nonzero;"/></g><g><path d="M41.68,69.83c-15.54,0 -28.13,-12.59 -28.13,-28.13c0,-15.54 12.59,-28.13 28.13,-28.13c15.54,0 28.13,12.59 28.13,28.13c-0.01,15.53 -12.6,28.12 -28.13,28.13Z" style="fill:#212121;fill-rule:nonzero;"/></g></g></g></svg>